# xmcd
#
# Track frame offsets:
#	150
#	13187
#	28370
#	39168
#	54000
#	66205
#	79385
#	90585
#	103606
#	114267
#	124170
#	135701
#	147047
#	157236
#	168181
#	180198
#
# Disc length: 2544 seconds
#
# Revision: 1
# Processed by: cddbd v1.5.2PL0 Copyright (c) Steve Scherf et al.
# Submitted via: audiograbber 1.83.01
#
DISCID=cb09ee10
DTITLE=Jounior Wells - In My Younger Days
DYEAR=1900
DGENRE=
TTITLE0=Cut That Out
TTITLE1=So All Alone
TTITLE2=Eagle Rock
TTITLE3='Bout the Break of Day
TTITLE4=Lawdy! Lawdy!
TTITLE5=Junior's Wail
TTITLE6=Tomorrow Night
TTITLE7=I Could Cry
TTITLE8=Cha Cha Cha in Blues
TTITLE9=Lovey Dovey Lovey One
TTITLE10=Little by Little
TTITLE11=Universal Rock
TTITLE12=Messin' With the Kid
TTITLE13=You Sure Look Good to Me
TTITLE14=It Hurts Me Too (When Things Go Wrong)
TTITLE15=I Need Me a Car
EXTD=
EXTT0=
EXTT1=
EXTT2=
EXTT3=
EXTT4=
EXTT5=
EXTT6=
EXTT7=
EXTT8=
EXTT9=
EXTT10=
EXTT11=
EXTT12=
EXTT13=
EXTT14=
EXTT15=
PLAYORDER=
